<svg width="16" height="16" viewBox="0 0 16 16" fill="none" xmlns="http://www.w3.org/2000/svg">
<path d="M5.79953 5.13807C6.05988 4.87772 6.05988 4.45561 5.79953 4.19526C5.53918 3.93491 5.11707 3.93491 4.85672 4.19526L1.52339 7.5286C1.26304 7.78894 1.26304 8.21106 1.52339 8.4714L4.85672 11.8047C5.11707 12.0651 5.53918 12.0651 5.79953 11.8047C6.05988 11.5444 6.05988 11.1223 5.79953 10.8619L2.9376 8L5.79953 5.13807Z" fill="black"/>
<path d="M11.1329 4.19526C10.8725 3.93491 10.4504 3.93491 10.1901 4.19526C9.9297 4.45561 9.9297 4.87772 10.1901 5.13807L13.052 8L10.1901 10.8619C9.9297 11.1223 9.9297 11.5444 10.1901 11.8047C10.4504 12.0651 10.8725 12.0651 11.1329 11.8047L14.4662 8.4714C14.7265 8.21106 14.7265 7.78894 14.4662 7.5286L11.1329 4.19526Z" fill="black"/>
</svg>
