<svg xmlns="http://www.w3.org/2000/svg" width="20" height="20" fill="none"><path fill="#D87558" d="M6.667 7.499a.833.833 0 1 0 0 1.666h6.666a.833.833 0 1 0 0-1.666zM6.667 10.832a.833.833 0 0 0 0 1.667H10a.833.833 0 0 0 0-1.667zM6.667 14.165a.833.833 0 1 0 0 1.667h6.666a.833.833 0 1 0 0-1.667z"/><path fill="#D87558" fill-rule="evenodd" d="M17.399 4.28a1.3 1.3 0 0 0-.29-.434l-2.623-2.623c-.25-.25-.588-.39-.942-.391h-9.71A1.333 1.333 0 0 0 2.5 2.165v15.667a1.334 1.334 0 0 0 1.333 1.333h12.334a1.333 1.333 0 0 0 1.333-1.333V4.791h-.833l.833.001v-.001c0-.176-.034-.35-.101-.511m-4.899.302c0 .69.56 1.25 1.25 1.25h2.083v11.667H4.167v-15H12.5zm2.572-.417-.905-.904v.904z" clip-rule="evenodd"/></svg>