<svg xmlns="http://www.w3.org/2000/svg" width="17" height="20" fill="none"><path fill="#000" d="m15.112 10.29-6.116 6.125a4.206 4.206 0 0 1-5.937-5.937l7.917-7.917a2.543 2.543 0 0 1 3.503 0 2.494 2.494 0 0 1 0 3.503L7.65 12.882a.755.755 0 0 1-1.31-.486.76.76 0 0 1 .201-.543l5.077-5.067a.994.994 0 0 0-1.405-1.405l-5.077 5.087a2.71 2.71 0 0 0 0 3.85 2.79 2.79 0 0 0 3.85 0l6.818-6.829A4.453 4.453 0 0 0 9.51 1.195L1.594 9.112a6.185 6.185 0 0 0 8.798 8.679l6.125-6.116a.992.992 0 0 0-.702-1.696 1 1 0 0 0-.703.29z"/></svg>