<svg xmlns="http://www.w3.org/2000/svg" width="13" height="12" fill="none"><path fill="#000" d="m5.603 2.717.295-.322v1.959a.545.545 0 0 0 1.09 0V2.395l.295.3A.546.546 0 0 0 8.2 2.54a.545.545 0 0 0-.12-.597L6.832.693A.6.6 0 0 0 6.65.58a.55.55 0 0 0-.415 0 .6.6 0 0 0-.18.115L4.807 1.92a.563.563 0 1 0 .796.796m.84 3.273a1.636 1.636 0 1 0 0 3.273 1.636 1.636 0 0 0 0-3.273m0 2.182a.545.545 0 1 1 0-1.091.545.545 0 0 1 0 1.09m-3.818-.546a.545.545 0 1 0 1.091 0 .545.545 0 0 0-1.09 0m7.637 0a.545.545 0 1 0-1.09 0 .545.545 0 0 0 1.09 0m.545-3.818H8.625a.545.545 0 0 0 0 1.091h2.182a.545.545 0 0 1 .545.545v4.364a.545.545 0 0 1-.545.546H2.08a.545.545 0 0 1-.546-.546V5.444A.545.545 0 0 1 2.08 4.9h2.182a.545.545 0 1 0 0-1.09H2.08A1.636 1.636 0 0 0 .443 5.443v4.364a1.636 1.636 0 0 0 1.637 1.636h8.727a1.636 1.636 0 0 0 1.636-1.636V5.444a1.636 1.636 0 0 0-1.636-1.636"/></svg>