<svg xmlns="http://www.w3.org/2000/svg" width="22" height="21" fill="none"><path fill="#000" d="M19.254 10.27h2.702v1.286a8.5 8.5 0 0 1-.731 3.443 9 9 0 0 1-2.082 2.919 9.7 9.7 0 0 1-3.117 1.95 10.2 10.2 0 0 1-3.676.685H9.606c-2.548 0-4.991-.948-6.793-2.635C1.012 16.231 0 13.942 0 11.556V10.27h16.51V4.518c0-.256-.055-.509-.159-.745a1.95 1.95 0 0 0-.451-.632 2.1 2.1 0 0 0-.675-.422 2.2 2.2 0 0 0-.796-.148h-.691c-.63 0-1.162.393-1.331.932.425.229.779.558 1.024.956.246.397.375.849.375 1.308H8.234c0-.458.128-.907.372-1.304a2.7 2.7 0 0 1 1.017-.955 3.8 3.8 0 0 1 1.334-2.5A4.3 4.3 0 0 1 13.739 0h.691c1.28 0 2.506.476 3.411 1.323.905.848 1.413 1.997 1.413 3.195z"/></svg>