<svg xmlns="http://www.w3.org/2000/svg" width="20" height="20" fill="none"><path fill="#E8A76D" fill-rule="evenodd" d="M9.997.832c-1.564 0-3.053.663-4.143 1.826-1.088 1.16-1.69 2.722-1.69 4.34 0 2.998-.601 4.865-1.158 5.955a5.3 5.3 0 0 1-.741 1.117 3 3 0 0 1-.258.255l-.002.002a.833.833 0 0 0 .492 1.505h15a.833.833 0 0 0 .493-1.506l-.002-.001-.044-.038c-.045-.04-.12-.11-.214-.217a5.3 5.3 0 0 1-.74-1.117c-.558-1.09-1.16-2.957-1.16-5.954 0-1.619-.601-3.181-1.689-4.341-1.09-1.161-2.58-1.826-4.144-1.826M2.005 14.326l.002-.001zm.002-.001-.003.002zm13.499-.613q.124.243.25.453H4.24q.124-.21.25-.453c.692-1.355 1.34-3.488 1.34-6.713 0-1.21.452-2.361 1.24-3.201.786-.84 1.84-1.3 2.927-1.3s2.141.461 2.928 1.3l1.29 4.727c.167 2.39.713 4.058 1.29 5.187m-1.29-5.187a22 22 0 0 1-.052-1.526c0-1.21-.451-2.361-1.239-3.201z" clip-rule="evenodd"/><path fill="#E8A76D" d="M9.277 17.081a.833.833 0 1 0-1.442.835 2.5 2.5 0 0 0 4.325 0 .833.833 0 1 0-1.442-.835.833.833 0 0 1-1.441 0"/></svg>