<svg xmlns="http://www.w3.org/2000/svg" width="20" height="20" fill="none"><path fill="#E2C576" fill-rule="evenodd" d="M6.672 1.665a.833.833 0 0 0-1.667 0V2.5h-.833a2.5 2.5 0 0 0-2.5 2.5v10.833a2.5 2.5 0 0 0 2.5 2.5h11.667a2.5 2.5 0 0 0 2.5-2.5V4.999a2.5 2.5 0 0 0-2.5-2.5h-.417a.833.833 0 1 0 0 1.666h.416a.833.833 0 0 1 .834.834v2.5H3.339v-2.5a.833.833 0 0 1 .833-.834h.833V5a.833.833 0 1 0 1.667 0zm-3.09 14.756a.83.83 0 0 1-.243-.589V9.165h13.333v6.667a.833.833 0 0 1-.834.833H4.172a.83.83 0 0 1-.59-.244" clip-rule="evenodd"/><path fill="#E2C576" d="M13.339 1.665a.833.833 0 0 0-1.667 0V2.5H8.755a.833.833 0 1 0 0 1.666h2.917V5a.833.833 0 1 0 1.666 0z"/></svg>