<svg xmlns="http://www.w3.org/2000/svg" width="13" height="14" fill="none"><path fill="#8496E7" fill-rule="evenodd" d="M9.396.538v.525c1.93.15 3.205 1.465 3.207 3.48l.008 5.898c.003 2.197-1.379 3.548-3.593 3.552L3.609 14c-2.2.003-3.599-1.381-3.601-3.584L0 4.586C-.003 2.56 1.227 1.249 3.157 1.072V.546c-.001-.307.227-.539.531-.539s.533.23.534.538v.49l4.11-.006L8.33.54c0-.307.228-.538.532-.539.298 0 .533.23.534.538M1.063 4.806l10.473-.014v-.245c-.03-1.504-.785-2.293-2.141-2.411v.539c0 .3-.234.54-.531.54a.527.527 0 0 1-.534-.539V2.11l-4.11.006.002.566c0 .302-.228.54-.532.54a.526.526 0 0 1-.534-.539v-.538c-1.35.135-2.096.927-2.093 2.444zm7.511 3.18v.008a.57.57 0 1 0 1.14-.037.58.58 0 0 0-.574-.559.58.58 0 0 0-.566.588m.571 3.142a.594.594 0 0 1-.575-.594.583.583 0 0 1 .566-.597h.007a.59.59 0 0 1 .589.595.59.59 0 0 1-.587.596M5.723 7.997a.575.575 0 0 0 .595.559.576.576 0 0 0 .545-.602.57.57 0 0 0-.574-.56.597.597 0 0 0-.566.603m.599 3.098a.576.576 0 0 1-.596-.559c0-.322.249-.588.566-.602a.57.57 0 0 1 .575.558.576.576 0 0 1-.545.603m-3.45-3.07a.575.575 0 0 0 .594.558.575.575 0 0 0 .545-.602.57.57 0 0 0-.575-.56.597.597 0 0 0-.565.603m.602 3.074a.575.575 0 0 1-.595-.56c0-.32.248-.588.566-.601a.57.57 0 0 1 .574.558.575.575 0 0 1-.545.603" clip-rule="evenodd"/></svg>