<svg width="9" height="9" viewBox="0 0 9 9" fill="none" xmlns="http://www.w3.org/2000/svg">
<path d="M7.65 0.900391H1.35C0.991958 0.900391 0.64858 1.04262 0.395406 1.2958C0.142232 1.54897 0 1.89235 0 2.25039V6.75039C0 7.10843 0.142232 7.45181 0.395406 7.70499C0.64858 7.95816 0.991958 8.10039 1.35 8.10039H7.65C8.00804 8.10039 8.35142 7.95816 8.60459 7.70499C8.85777 7.45181 9 7.10843 9 6.75039V2.25039C9 1.89235 8.85777 1.54897 8.60459 1.2958C8.35142 1.04262 8.00804 0.900391 7.65 0.900391ZM7.3485 1.80039L4.5 3.93789L1.6515 1.80039H7.3485ZM7.65 7.20039H1.35C1.23065 7.20039 1.11619 7.15298 1.0318 7.06859C0.947411 6.9842 0.9 6.86974 0.9 6.75039V2.36289L4.23 4.86039C4.30789 4.91881 4.40263 4.95039 4.5 4.95039C4.59737 4.95039 4.69211 4.91881 4.77 4.86039L8.1 2.36289V6.75039C8.1 6.86974 8.05259 6.9842 7.9682 7.06859C7.88381 7.15298 7.76935 7.20039 7.65 7.20039Z" fill="#8496E7"/>
</svg>
