<svg width="9" height="9" viewBox="0 0 9 9" fill="none" xmlns="http://www.w3.org/2000/svg">
<path d="M6.91617 8.99088C5.08261 8.9885 3.32484 8.25907 2.02832 6.96255C0.731805 5.66603 0.00237661 3.90826 0 2.07471C0 1.52681 0.217653 1.00134 0.605079 0.613919C0.992504 0.226494 1.51797 0.00884039 2.06587 0.00884039C2.18189 0.00795665 2.29772 0.0184863 2.41168 0.0402775C2.52185 0.0565801 2.63015 0.083656 2.73503 0.121116C2.80879 0.146997 2.87452 0.191685 2.92572 0.250759C2.97692 0.309833 3.01181 0.381248 3.02695 0.457942L3.64221 3.15255C3.6588 3.22569 3.6568 3.30183 3.6364 3.374C3.61601 3.44617 3.57786 3.51208 3.52545 3.56573C3.46707 3.6286 3.46257 3.63309 2.91018 3.92052C3.35254 4.89096 4.12868 5.67029 5.0973 6.11662C5.38922 5.55974 5.39371 5.55525 5.45659 5.49686C5.51023 5.44445 5.57614 5.4063 5.64831 5.38591C5.72049 5.36551 5.79662 5.36351 5.86976 5.3801L8.56437 5.99537C8.63861 6.01259 8.70724 6.04842 8.76381 6.09949C8.82038 6.15056 8.86302 6.21519 8.88772 6.28728C8.92563 6.39388 8.95418 6.50358 8.97305 6.61513C8.99113 6.728 9.00014 6.84213 9 6.95644C8.99172 7.502 8.76794 8.02213 8.37753 8.40329C7.98712 8.78445 7.46177 8.99568 6.91617 8.99088Z" fill="#8496E7"/>
</svg>
