<svg xmlns="http://www.w3.org/2000/svg" width="90" height="90" fill="none"><path fill="#F5F5F5" d="M90 45c0 24.853-20.147 45-45 45S0 69.853 0 45 20.147 0 45 0s45 20.147 45 45"/><path fill="#8496E7" fill-rule="evenodd" stroke="#8496E7" stroke-linejoin="round" d="M21.972 18.112a2.061 2.061 0 0 0-3.659 1.9l1.953 3.762a2.061 2.061 0 1 0 3.66-1.899zm-2.058.509a.496.496 0 0 1 .669.212l1.954 3.763a.496.496 0 0 1-.882.458l-1.953-3.764a.496.496 0 0 1 .212-.67Zm7.234 8.487a4.694 4.694 0 0 0-4.694 4.694v32.94a4.694 4.694 0 0 0 4.694 4.693h31.294a4.694 4.694 0 0 0 4.694-4.694v-5.08a10.95 10.95 0 0 1-5.477-9.488c0-4.054 2.203-7.593 5.477-9.487v-8.884a4.694 4.694 0 0 0-4.694-4.694h-3.21v1.187a3.91 3.91 0 0 1-3.912 3.911H35.835a3.91 3.91 0 0 1-3.912-3.911v-1.187zM64.701 39.94v-8.138a6.26 6.26 0 0 0-6.26-6.259H48.159a4.737 4.737 0 0 0-9.162 0H27.148a6.26 6.26 0 0 0-6.259 6.259v32.94A6.26 6.26 0 0 0 27.148 71h31.294a6.26 6.26 0 0 0 6.259-6.259v-4.334c1.214.465 2.533.719 3.911.719 6.05 0 10.953-4.904 10.953-10.953S74.661 39.22 68.612 39.22c-1.378 0-2.697.255-3.911.72ZM12.218 24.26a2.06 2.06 0 0 1 2.765-.921l3.793 1.896a2.061 2.061 0 1 1-1.844 3.687l-3.792-1.896a2.06 2.06 0 0 1-.922-2.766Zm2.066.478a.496.496 0 1 0-.444.888l3.792 1.897a.496.496 0 0 0 .444-.888zm24.869 18.11c0-1.08.876-1.955 1.956-1.955h13.3a1.956 1.956 0 0 1 0 3.911h-13.3a1.956 1.956 0 0 1-1.956-1.955Zm1.956 7.204a1.956 1.956 0 0 0 0 3.912h13.3a1.956 1.956 0 0 0 0-3.912zm-.391 1.956c0-.216.175-.392.39-.392h13.3a.391.391 0 0 1 0 .783h-13.3a.39.39 0 0 1-.39-.391Zm-1.565 9.576c0-1.08.876-1.955 1.956-1.955h13.3a1.956 1.956 0 1 1 0 3.911h-13.3a1.956 1.956 0 0 1-1.956-1.956Zm1.956-.39a.391.391 0 1 0 0 .782h13.3a.391.391 0 0 0 0-.783zM30.412 42.146a2.347 2.347 0 0 1 2.347-2.347h1.24a2.347 2.347 0 0 1 2.348 2.347v1.241A2.347 2.347 0 0 1 34 45.735h-1.241a2.347 2.347 0 0 1-2.347-2.347zm2.347 6.812a2.347 2.347 0 0 0-2.347 2.347v1.241a2.347 2.347 0 0 0 2.347 2.347h1.24a2.347 2.347 0 0 0 2.348-2.347v-1.24A2.347 2.347 0 0 0 34 48.958zm-.782 2.347c0-.432.35-.782.782-.782h1.24c.433 0 .783.35.783.782v1.241c0 .432-.35.783-.782.783h-1.241a.78.78 0 0 1-.782-.783zm-1.565 9.577a2.347 2.347 0 0 1 2.347-2.347h1.24a2.347 2.347 0 0 1 2.348 2.347v1.241A2.347 2.347 0 0 1 34 64.471h-1.241a2.347 2.347 0 0 1-2.347-2.347zm2.347-.782a.78.78 0 0 0-.782.782v1.241c0 .432.35.782.782.782h1.24c.433 0 .783-.35.783-.782v-1.24A.78.78 0 0 0 34 60.1zm26.465-9.928a9.388 9.388 0 1 1 18.776 0 9.388 9.388 0 0 1-18.776 0Z" clip-rule="evenodd"/></svg>