<svg width="30" height="30" viewBox="0 0 30 30" fill="none" xmlns="http://www.w3.org/2000/svg">
<path d="M11.5 8C11.3485 8 11.2022 8.02247 11.0643 8.06427C11.251 7.44835 11.8231 7 12.5 7H19.5C20.3284 7 21 7.67157 21 8.5V19.5C21 20.1769 20.5517 20.7491 19.9357 20.9357C19.9775 20.7978 20 20.6515 20 20.5V9.5C20 8.67157 19.3284 8 18.5 8H11.5Z" fill="black"/>
<path d="M10.5 9C9.67157 9 9 9.67157 9 10.5V21.5C9 22.3284 9.67157 23 10.5 23H17.5C18.3284 23 19 22.3284 19 21.5V10.5C19 9.67157 18.3284 9 17.5 9H10.5Z" fill="black"/>
</svg>
