<svg xmlns="http://www.w3.org/2000/svg" width="20" height="19" fill="none"><path fill="#8496E7" d="M9.23 4.79V.783C9.23.355 9.57 0 10 0c.385 0 .711.298.763.677l.007.105V4.79h4.78c2.38 0 4.335 1.949 4.445 4.38l.005.215v5.04c0 2.447-1.887 4.456-4.232 4.569L15.56 19H4.44C2.06 19 .114 17.06.005 14.621L0 14.405v-5.03c0-2.447 1.878-4.466 4.222-4.58l.208-.004zv6.402l-1.6-1.652a.755.755 0 0 0-1.09 0 .8.8 0 0 0-.22.568c0 .157.045.32.14.459l.08.099 2.91 3.015c.14.155.34.237.55.237a.74.74 0 0 0 .465-.166l.075-.071 2.91-3.015c.3-.31.3-.816 0-1.126a.755.755 0 0 0-1.004-.077l-.086.077-1.59 1.652V4.791z"/></svg>