<svg xmlns="http://www.w3.org/2000/svg" width="19" height="18" fill="none"><path fill="#000" stroke="#000" stroke-width=".2" d="M13.743.822c.328 0 .643.118.878.33l.001.001 3.26 2.985a1.1 1.1 0 0 1 .368.811c0 .268-.102.525-.284.729l-.083.084L6.338 16.264l-.02.017-.027.006-4.605.961-.011.003v-.001a1.4 1.4 0 0 1-.258 0v-.001c-.18-.002-.36-.04-.522-.111a1.2 1.2 0 0 1-.43-.313 1.1 1.1 0 0 1-.242-.455 1.05 1.05 0 0 1-.005-.508l1.056-4.15.007-.027.023-.02L12.865 1.151c.235-.212.55-.33.878-.33ZM2.472 12.302l-.938 3.673 4.135-.79 8.547-7.748-3.185-2.899zm9.453-8.632 3.183 2.898 1.733-1.613-3.132-2.9z"/></svg>