<svg xmlns="http://www.w3.org/2000/svg" width="13" height="10" fill="none"><path fill="#4F9B90" d="M11.114 5.626v-.102A4.8 4.8 0 0 0 9.663 2.08 4.7 4.7 0 0 0 7.756.954h-.03A5 5 0 0 0 6.172.726a4.924 4.924 0 0 0-4.653 4.9 1.8 1.8 0 0 0 .6 3.496h8.396a1.8 1.8 0 0 0 .6-3.496m-.6 2.297H2.118a.6.6 0 0 1 0-1.2h1.2a.6.6 0 1 0 0-1.2h-.6a3.84 3.84 0 0 1 1.8-3.088v1.89a.6.6 0 0 0 1.199 0V1.978q.244-.04.491-.053h.108q.303.001.6.06v2.338a.6.6 0 1 0 1.2 0V2.417q.382.223.707.522a3.6 3.6 0 0 1 1.092 2.585h-.6a.6.6 0 0 0 0 1.2h1.2a.6.6 0 1 1 0 1.199"/></svg>