<svg xmlns="http://www.w3.org/2000/svg" width="20" height="20" fill="none"><path fill="#4F9B90" fill-rule="evenodd" d="M10.005 2.23c-.761 0-1.508.21-2.16.604L3.68 5.359a4.17 4.17 0 0 0-2.007 3.563v5.243a4.167 4.167 0 0 0 4.167 4.167h8.333a4.167 4.167 0 0 0 4.166-4.167V8.922a4.17 4.17 0 0 0-2.007-3.562l-4.166-2.525a4.17 4.17 0 0 0-2.16-.604M8.71 4.26a2.5 2.5 0 0 1 2.59 0l4.167 2.524a2.5 2.5 0 0 1 1.205 2.137v5.245a2.5 2.5 0 0 1-2.5 2.5h-.834v-2.5a3.333 3.333 0 1 0-6.666 0v2.5h-.833a2.5 2.5 0 0 1-2.5-2.5V8.922a2.5 2.5 0 0 1 1.204-2.138zm2.474 8.727c.312.313.488.736.488 1.178v2.5H8.339v-2.5a1.667 1.667 0 0 1 2.845-1.178" clip-rule="evenodd"/></svg>