<svg xmlns="http://www.w3.org/2000/svg" width="18" height="18" fill="none"><path fill="#000" d="M4 0a4 4 0 0 0-4 4v10a4 4 0 0 0 4 4h10a4 4 0 0 0 4-4V4a4 4 0 0 0-4-4zm0 2h10a2 2 0 0 1 2 2l.004 6.196c-.778-.722-1.571-1.174-2.442-1.196H13.5c-1.137 0-2.401.874-3.25 1.969-.217-.49-.436-.974-.688-1.438C8.382 7.352 7.093 6.003 5.5 6c-1.354-.003-2.516 1.104-3.508 2.62L2 4a2 2 0 0 1 2-2m9 2a1 1 0 1 0 0 2 1 1 0 0 0 0-2M5.5 8c.582.001 1.466.907 2.312 2.469.336.618.637 1.299.907 1.969.162.4.287.706.343.874.273.817 1.381.933 1.813.188.043-.074.121-.216.25-.406.216-.32.462-.644.719-.938C12.486 11.42 13.105 11 13.5 11c.399.01 1.015.429 1.656 1.156.26.295.5.618.719.938.069.1.079.147.125.218V14a2 2 0 0 1-2 2H4a2 2 0 0 1-2-2v-.844c.063-.178.147-.389.281-.718.273-.67.569-1.35.907-1.969C4.041 8.904 4.919 7.999 5.5 8"/></svg>