<svg xmlns="http://www.w3.org/2000/svg" width="58" height="57" fill="none"><path fill="#8496E7" fill-rule="evenodd" stroke="#8496E7" stroke-linejoin="round" stroke-width=".9" d="M18.409 5.925a4.52 4.52 0 0 1 4.345-3.283h16.652a11.55 11.55 0 0 0-3.51 3.283zm16.533 1.642H10.85a4.925 4.925 0 0 0-4.926 4.926v30.373h25.858a.82.82 0 0 1 .822.82v4.31a6.362 6.362 0 1 0 12.723 0v-24.01c-6.347 0-11.492-5.146-11.492-11.494 0-1.762.397-3.432 1.106-4.925ZM46.97 23.87v23.033a4.93 4.93 0 0 0 4.105-4.857V22.448a11.4 11.4 0 0 1-4.105 1.42Zm5.746-2.573v20.749a6.57 6.57 0 0 1-5.766 6.519 8.004 8.004 0 0 1-8.198 7.433l.01.003H9.208A8.21 8.21 0 0 1 1 47.791v-1.642a3.284 3.284 0 0 1 3.284-3.283V12.493a6.567 6.567 0 0 1 6.567-6.568h5.87A6.16 6.16 0 0 1 22.753 1h21.754v.029q.405-.03.82-.029c6.347 0 11.493 5.145 11.493 11.493 0 3.533-1.595 6.695-4.105 8.803ZM10.03 29.321c0-1.134.919-2.052 2.052-2.052h12.313a2.052 2.052 0 1 1 0 4.104H12.082a2.05 2.05 0 0 1-2.052-2.052Zm2.052-.41a.41.41 0 0 0 0 .82h12.313a.41.41 0 1 0 0-.82zm4.888-4.797q.093.094.296.094.173 0 .252-.094.087-.093.087-.296v-.584a3.1 3.1 0 0 0 1.219-.383 2.33 2.33 0 0 0 .88-.923q.34-.613.34-1.515 0-.78-.354-1.284a2.6 2.6 0 0 0-.823-.787q-.468-.275-1.262-.62v-1.948q.36.014.606.08.252.064.512.165.18.072.238.072.144 0 .303-.202.165-.2.282-.469a1.2 1.2 0 0 0 .115-.447q0-.195-.267-.39-.26-.195-.736-.332a4.3 4.3 0 0 0-1.053-.158v-.397q0-.21-.087-.296-.086-.087-.296-.087-.173 0-.26.094-.086.087-.086.289v.404a3.7 3.7 0 0 0-1.284.382q-.577.303-.931.866-.345.555-.346 1.364 0 .85.368 1.385.374.527.873.8.505.268 1.32.57v2.115q-.447 0-.823-.123a6 6 0 0 1-.757-.317q-.274-.145-.36-.145-.131 0-.325.202-.195.195-.34.47-.137.273-.137.461 0 .224.325.476.332.253.952.44.628.18 1.465.21v.562q0 .203.094.296Zm-.613-7.98q.144-.195.519-.288v1.544a1.9 1.9 0 0 1-.498-.39.73.73 0 0 1-.166-.476q0-.203.145-.39Zm1.652 5.008a.94.94 0 0 1-.404.295v-1.623q.555.317.555.837 0 .295-.151.49Zm-7.98 14.746c0-1.133.92-2.052 2.053-2.052H36.71a2.052 2.052 0 0 1 0 4.104H12.082a2.05 2.05 0 0 1-2.052-2.052Zm2.053-.41a.41.41 0 0 0 0 .82H36.71a.41.41 0 0 0 0-.82zm23.396-22.985c0-5.44 4.41-9.851 9.85-9.851s9.851 4.41 9.851 9.85c0 5.441-4.41 9.851-9.85 9.851-5.441 0-9.851-4.41-9.851-9.85Zm7.798-5.336a2.052 2.052 0 0 1 4.105 0v4.925a2.052 2.052 0 1 1-4.105 0zm2.052-.41a.41.41 0 0 0-.41.41v4.925a.41.41 0 0 0 .82 0V7.157a.41.41 0 0 0-.41-.41Zm0 13.134a2.052 2.052 0 1 1 0-4.105 2.052 2.052 0 0 1 0 4.105Zm-.41-2.053a.41.41 0 1 0 .82 0 .41.41 0 0 0-.82 0Z" clip-rule="evenodd"/></svg>