<svg xmlns="http://www.w3.org/2000/svg" width="24" height="25" fill="none"><path fill="#000" d="M21 5.19v15.354a1.323 1.323 0 0 1-1.323 1.323H4.324A1.324 1.324 0 0 1 3 20.544V5.19a1.324 1.324 0 0 1 1.324-1.324h15.353A1.323 1.323 0 0 1 21 5.191M8.294 10.75H5.647v8.47h2.647zm.238-2.912a1.525 1.525 0 0 0-1.514-1.536h-.047a1.535 1.535 0 0 0 0 3.071 1.525 1.525 0 0 0 1.561-1.488zm9.82 6.236c0-2.546-1.62-3.536-3.229-3.536a3.02 3.02 0 0 0-2.678 1.366h-.074v-1.155H9.882v8.471h2.647v-4.505a1.757 1.757 0 0 1 1.589-1.896h.1c.842 0 1.467.53 1.467 1.864v4.537h2.647z"/></svg>