<svg xmlns="http://www.w3.org/2000/svg" width="20" height="19" fill="none"><path fill="#8496E7" d="M4 19q-1.65 0-2.825-1.175T0 15t1.175-2.825T4 11t2.825 1.175T8 15t-1.175 2.825T4 19m12 0q-1.65 0-2.825-1.175T12 15t1.175-2.825T16 11t2.825 1.175T20 15t-1.175 2.825T16 19m-6-6.1q-.8 0-1.35-.55A1.84 1.84 0 0 1 8.1 11q0-.8.55-1.35T10 9.1t1.35.55.55 1.35-.55 1.35-1.35.55M10 8Q8.35 8 7.175 6.825T6 4t1.175-2.825T10 0t2.825 1.175T14 4t-1.175 2.825T10 8"/><path fill="#000" fill-opacity=".2" d="M4 19q-1.65 0-2.825-1.175T0 15t1.175-2.825T4 11t2.825 1.175T8 15t-1.175 2.825T4 19m12 0q-1.65 0-2.825-1.175T12 15t1.175-2.825T16 11t2.825 1.175T20 15t-1.175 2.825T16 19m-6-6.1q-.8 0-1.35-.55A1.84 1.84 0 0 1 8.1 11q0-.8.55-1.35T10 9.1t1.35.55.55 1.35-.55 1.35-1.35.55M10 8Q8.35 8 7.175 6.825T6 4t1.175-2.825T10 0t2.825 1.175T14 4t-1.175 2.825T10 8"/></svg>