<svg xmlns="http://www.w3.org/2000/svg" width="800" height="800" fill="none" viewBox="0 0 16 16"><path fill="#000" d="M5.314 1.256a.75.75 0 0 1-.07 1.058L3.889 3.5l1.355 1.186a.75.75 0 1 1-.988 1.128l-2-1.75a.75.75 0 0 1 0-1.128l2-1.75a.75.75 0 0 1 1.058.07m1.872 0a.75.75 0 0 0 .07 1.058L8.611 3.5 7.256 4.686a.75.75 0 1 0 .988 1.128l2-1.75a.75.75 0 0 0 0-1.128l-2-1.75a.75.75 0 0 0-1.058.07M2.75 7.5a.75.75 0 0 0 0 1.5h10.5a.75.75 0 0 0 0-1.5zM2 11.25a.75.75 0 0 1 .75-.75h10.5a.75.75 0 0 1 0 1.5H2.75a.75.75 0 0 1-.75-.75m.75 2.25a.75.75 0 0 0 0 1.5h6.5a.75.75 0 0 0 0-1.5z"/></svg>