<svg xmlns="http://www.w3.org/2000/svg" width="90" height="90" fill="none"><path fill="#F5F5F5" d="M90 45c0 24.853-20.147 45-45 45S0 69.853 0 45 20.147 0 45 0s45 20.147 45 45"/><path fill="#8496E7" fill-rule="evenodd" d="M41.572 7.682a6.61 6.61 0 0 1 5.85 0l28.46 14.047.005.003A9.12 9.12 0 0 1 81 29.89v30.09c0 5.07-4.154 9.124-9.209 9.124H17.21C12.155 69.104 8 65.05 8 59.98V29.892a9.12 9.12 0 0 1 5.11-8.162zm2.307 4.676L15.41 26.408l-.006.004a3.91 3.91 0 0 0-2.19 3.494V59.98c0 2.128 1.756 3.91 3.995 3.91H71.79c2.239 0 3.995-1.782 3.995-3.91V29.907a3.91 3.91 0 0 0-2.193-3.494l-.01-.004-28.468-14.051a1.4 1.4 0 0 0-1.236 0" clip-rule="evenodd"/><path fill="#8496E7" fill-rule="evenodd" d="M40.061 37.63a6.52 6.52 0 0 1 8.003 0l21.06 16.381a2.607 2.607 0 0 1-3.2 4.116L44.862 41.746a1.3 1.3 0 0 0-1.6 0L22.2 58.126a2.607 2.607 0 1 1-3.2-4.115z" clip-rule="evenodd"/><path fill="#8496E7" fill-rule="evenodd" d="M77.423 25.82a2.607 2.607 0 0 1-.504 3.651l-22.16 16.783a2.607 2.607 0 1 1-3.147-4.157l22.159-16.782a2.607 2.607 0 0 1 3.652.505m-66.724.002a2.607 2.607 0 0 1 3.651-.509l22.648 17.108a2.607 2.607 0 0 1-3.143 4.16L11.208 29.474a2.607 2.607 0 0 1-.51-3.652" clip-rule="evenodd"/><path fill="#8496E7" d="M36.99 54.774c-.064 0-1.981.65-1.981.65l.079-1.775c-.016-.443-.349-.649-.73-.649-.38 0-.712.206-.727.65l.078 1.759s-1.917-.634-1.965-.634c-.427 0-.744.396-.744.76 0 .333.143.618.46.682l1.758.507-1.11 1.552a.66.66 0 0 0-.173.428c0 .444.538.713.855.713.19 0 .35-.047.476-.253l1.093-1.648 1.078 1.632c.158.237.364.27.523.27.395 0 .824-.302.824-.746 0-.142-.048-.3-.112-.38l-1.156-1.648 1.711-.428c.333-.063.475-.332.475-.602 0-.396-.285-.84-.713-.84m9.538 0c-.063 0-1.98.65-1.98.65l.079-1.775c-.016-.443-.349-.649-.728-.649-.381 0-.714.206-.73.65l.08 1.759s-1.918-.634-1.965-.634c-.428 0-.745.396-.745.76 0 .333.143.618.46.682l1.759.507-1.11 1.552a.66.66 0 0 0-.174.428c0 .444.54.713.856.713.19 0 .348-.047.475-.253l1.093-1.648 1.078 1.632c.158.237.364.27.523.27.396 0 .824-.302.824-.746 0-.142-.048-.3-.112-.38l-1.156-1.648 1.711-.428c.333-.063.476-.332.476-.602 0-.396-.285-.84-.714-.84m9.539 0c-.064 0-1.98.65-1.98.65l.079-1.775c-.017-.443-.349-.649-.73-.649-.38 0-.712.206-.728.65l.079 1.759s-1.917-.634-1.965-.634c-.428 0-.745.396-.745.76 0 .333.143.618.46.682l1.759.507-1.11 1.552a.66.66 0 0 0-.174.428c0 .444.54.713.856.713.19 0 .349-.047.475-.253l1.094-1.648 1.077 1.632c.159.237.364.27.523.27.396 0 .824-.302.824-.746 0-.142-.048-.3-.111-.38l-1.157-1.648 1.711-.428c.333-.063.476-.332.476-.602 0-.396-.285-.84-.713-.84"/></svg>