<svg xmlns="http://www.w3.org/2000/svg" width="16" height="23" fill="none"><path fill="#202124" d="m8.811 16.331-.171-.137a.9.9 0 0 0-.206-.103L8.23 16a1.14 1.14 0 0 0-1.04.309 1.3 1.3 0 0 0-.24.377 1.143 1.143 0 0 0 1.485 1.497 1.7 1.7 0 0 0 .377-.252 1.14 1.14 0 0 0 .24-1.245 1.1 1.1 0 0 0-.24-.355M12.571 0H3.43A3.43 3.43 0 0 0 0 3.429v16a3.43 3.43 0 0 0 3.429 3.428h9.142A3.43 3.43 0 0 0 16 19.43v-16A3.43 3.43 0 0 0 12.571 0m1.143 19.429a1.143 1.143 0 0 1-1.143 1.142H3.43a1.143 1.143 0 0 1-1.143-1.142v-16a1.143 1.143 0 0 1 1.143-1.143h9.142a1.143 1.143 0 0 1 1.143 1.143z"/></svg>