<svg width="24" height="24" viewBox="0 0 24 24" fill="none" xmlns="http://www.w3.org/2000/svg">
<path fill-rule="evenodd" clip-rule="evenodd" d="M12.0169 2.44727L21.4401 9.06147L12.9448 9.06127V12.9363L16.7958 12.9371V14.8171L12.9448 14.8163L12.9456 21.397H11.0656L11.0647 14.8163L7.44615 14.8171V12.9371L11.0647 12.9363V9.06127L2.59375 9.06147L12.0169 2.44727ZM4.49878 11.5981L4.49867 16.7213L9.17357 16.7222V21.397H7.29357L7.29266 18.6013H4.49866L4.49877 21.397H2.61877V11.5981L4.49878 11.5981ZM21.4708 21.397H19.5908L19.59 18.6013H16.795L16.796 21.397H14.916V16.7222L19.59 16.7212L19.5908 11.5711H21.4708L21.4708 21.397Z" fill="black"/>
</svg>
