<svg width="30" height="30" viewBox="0 0 30 30" fill="none" xmlns="http://www.w3.org/2000/svg">
<path d="M13.4004 15.1562L13.2012 15.0068C12.4585 14.4478 12 13.5366 12 12.5996V10.5C12 8.84315 13.3431 7.5 15 7.5C16.6569 7.5 18 8.84315 18 10.5V12.5996C18 13.537 17.5416 14.4478 16.7988 15.0068L16.5996 15.1562V16.874L16.6504 16.9766C16.81 17.3059 17.0887 17.5739 17.4434 17.7158L19.0293 18.3496C19.8251 18.668 20.4749 19.2278 20.9082 19.9248L20.9209 19.9453L20.9355 19.9648C21.2514 20.3779 21.4656 20.8886 21.4941 21.5498H8.50586C8.53384 20.914 8.73669 20.4165 9.03809 20.0098L9.05273 19.9902L9.06445 19.9697C9.49749 19.2518 10.1579 18.6748 10.9707 18.3496L12.5566 17.7158C12.9113 17.5739 13.19 17.3059 13.3496 16.9766L13.4004 16.874V15.1562Z" fill="black" stroke="black"/>
</svg>
