<svg xmlns="http://www.w3.org/2000/svg" width="24" height="24" fill="none"><path fill="#000" fill-rule="evenodd" d="M9.471 8.143c1.005 0 1.819-.81 1.819-1.81V6.29c0-1-.814-1.81-1.819-1.81s-1.818.81-1.818 1.81v.043c0 1 .814 1.81 1.818 1.81m5.456 0c1.004 0 1.818-.81 1.818-1.81V6.29c0-1-.814-1.81-1.818-1.81s-1.819.81-1.819 1.81v.043c0 1 .814 1.81 1.819 1.81m-1.093 2.35q.292.22.514.511l3.304 4.322a2.68 2.68 0 0 1-.514 3.767 2.7 2.7 0 0 1-1.635.549H8.895a2.694 2.694 0 0 1-2.7-2.688c0-.588.193-1.16.551-1.628l3.304-4.322a2.71 2.71 0 0 1 3.784-.511m4.73-1.488c-1.005 0-1.819.81-1.819 1.81v.042c0 1 .814 1.81 1.819 1.81s1.818-.81 1.818-1.81v-.042c0-1-.814-1.81-1.819-1.81m-10.911 1.81v.042c0 1-.815 1.81-1.819 1.81a1.814 1.814 0 0 1-1.818-1.81v-.042c0-1 .814-1.81 1.818-1.81s1.819.81 1.819 1.81" clip-rule="evenodd"/></svg>