<svg xmlns="http://www.w3.org/2000/svg" width="90" height="107" fill="none"><path fill="#F5F5F5" d="M90 61.23c0 24.853-20.147 45-45 45s-45-20.147-45-45c0-24.852 20.147-45 45-45s45 20.148 45 45"/><path fill="#8496E7" fill-rule="evenodd" d="M30.294 5.977a5.977 5.977 0 0 0-5.977 5.978v71.728a5.977 5.977 0 0 0 5.977 5.977h29.887a5.977 5.977 0 0 0 5.978-5.977V11.955a5.977 5.977 0 0 0-5.978-5.978zM18.34 11.955C18.34 5.352 23.692 0 30.294 0h29.887c6.603 0 11.955 5.352 11.955 11.955v71.728c0 6.602-5.352 11.955-11.955 11.955H30.294c-6.602 0-11.954-5.353-11.954-11.955z" clip-rule="evenodd"/><path fill="#8496E7" fill-rule="evenodd" d="M27.306 2.989A2.99 2.99 0 0 1 30.294 0h4.483a4.483 4.483 0 0 1 4.483 4.483h11.955A4.483 4.483 0 0 1 55.698 0h4.483a2.989 2.989 0 0 1 0 5.977h-3.178a5.98 5.98 0 0 1-5.788 4.483H39.26a5.98 5.98 0 0 1-5.787-4.483h-3.179a2.99 2.99 0 0 1-2.988-2.988" clip-rule="evenodd"/><path fill="#D9E5FF" d="M64.375 53.796H26.1c-.91 0-1.647-.766-1.647-1.712V35.946c0-.946.738-1.712 1.647-1.712h38.275c.91 0 1.648.766 1.648 1.712v16.138c0 .946-.738 1.712-1.648 1.712"/><path fill="#8496E7" d="M36.666 42.516c-.077 0-2.421.795-2.421.795l.096-2.17c-.019-.542-.426-.794-.89-.794-.465 0-.873.252-.891.794l.096 2.151s-2.344-.775-2.402-.775c-.523 0-.91.484-.91.93 0 .407.174.755.561.833l2.15.62-1.356 1.898a.8.8 0 0 0-.213.524c0 .542.659.871 1.046.871.233 0 .427-.058.582-.31l1.336-2.015 1.318 1.996c.194.29.445.33.64.33.483 0 1.007-.37 1.007-.912 0-.174-.058-.367-.136-.464l-1.414-2.015 2.092-.524c.406-.077.58-.406.58-.735.002-.484-.347-1.028-.87-1.028m11.661 0c-.077 0-2.422.795-2.422.795l.097-2.17c-.019-.542-.426-.794-.89-.794-.466 0-.873.252-.892.794l.097 2.151s-2.345-.775-2.403-.775c-.522 0-.91.484-.91.93 0 .407.175.755.562.833l2.15.62-1.356 1.898a.8.8 0 0 0-.213.524c0 .542.66.871 1.047.871.232 0 .426-.058.58-.31l1.337-2.015 1.318 1.996c.193.29.445.33.639.33.485 0 1.007-.37 1.007-.912 0-.174-.058-.367-.136-.464l-1.414-2.015 2.093-.524c.407-.077.581-.406.581-.735 0-.484-.349-1.028-.872-1.028m11.662 0c-.078 0-2.421.795-2.421.795l.096-2.17c-.02-.542-.426-.794-.89-.794-.465 0-.872.252-.892.794l.096 2.151s-2.343-.775-2.401-.775c-.524 0-.911.484-.911.93 0 .407.174.755.562.833l2.15.62-1.356 1.898a.8.8 0 0 0-.213.524c0 .542.659.871 1.046.871.233 0 .426-.058.581-.31l1.337-2.015 1.317 1.996c.194.29.446.33.64.33.484 0 1.007-.37 1.007-.912 0-.174-.058-.367-.136-.464l-1.414-2.015 2.092-.524c.407-.077.582-.406.582-.735 0-.484-.35-1.028-.872-1.028"/></svg>