<svg xmlns="http://www.w3.org/2000/svg" width="24" height="26" fill="none"><path stroke="#fff" stroke-width="1.431" d="M22.96.97q.092.015.173.085c.053.047.099.113.126.194.027.08.032.17.016.255L18.911 24.69a.5.5 0 0 1-.093.205.4.4 0 0 1-.153.116.32.32 0 0 1-.33-.053l-7.097-5.652-.561-.448-.446.563-3.415 4.31a.37.37 0 0 1-.187.13.3.3 0 0 1-.201-.01.4.4 0 0 1-.18-.15.5.5 0 0 1-.081-.271V15.94l7.356-6.16-.764-1.195-9.415 4.445L.882 11.05l-.001-.001a.44.44 0 0 1-.131-.182.51.51 0 0 1 .057-.473.4.4 0 0 1 .157-.13L22.784.992A.3.3 0 0 1 22.96.97Z"/></svg>