<svg width="13" height="13" viewBox="0 0 13 13" fill="none" xmlns="http://www.w3.org/2000/svg">
<path d="M2.83455 5.3531C3.27943 5.3531 3.71433 5.22118 4.08424 4.97401C4.45415 4.72685 4.74246 4.37554 4.91271 3.96452C5.08297 3.55349 5.12751 3.10122 5.04072 2.66488C4.95392 2.22854 4.73969 1.82773 4.42511 1.51315C4.11052 1.19857 3.70972 0.984332 3.27338 0.897539C2.83704 0.810745 2.38476 0.855291 1.97374 1.02554C1.56272 1.19579 1.21141 1.4841 0.964243 1.85401C0.717077 2.22393 0.585152 2.65882 0.585152 3.10371C0.585803 3.70009 0.823001 4.27185 1.2447 4.69355C1.66641 5.11525 2.23817 5.35245 2.83455 5.3531ZM2.83455 2.35391C2.98284 2.35391 3.12781 2.39789 3.25111 2.48028C3.37441 2.56267 3.47052 2.67977 3.52727 2.81678C3.58402 2.95378 3.59887 3.10454 3.56994 3.24999C3.54101 3.39544 3.46959 3.52904 3.36473 3.6339C3.25987 3.73876 3.12627 3.81017 2.98082 3.8391C2.83538 3.86803 2.68462 3.85318 2.54761 3.79643C2.4106 3.73968 2.2935 3.64358 2.21111 3.52028C2.12872 3.39697 2.08475 3.25201 2.08475 3.10371C2.08488 2.90489 2.16392 2.71426 2.30451 2.57367C2.44509 2.43308 2.63573 2.35405 2.83455 2.35391ZM9.19611 7.21589C8.75123 7.21589 8.31633 7.34781 7.94642 7.59498C7.57651 7.84214 7.2882 8.19345 7.11795 8.60448C6.9477 9.0155 6.90315 9.46778 6.98994 9.90412C7.07674 10.3405 7.29097 10.7413 7.60555 11.0558C7.92014 11.3704 8.32094 11.5847 8.75728 11.6715C9.19362 11.7582 9.6459 11.7137 10.0569 11.5434C10.4679 11.3732 10.8193 11.0849 11.0664 10.715C11.3136 10.3451 11.4455 9.91017 11.4455 9.46528C11.4449 8.8689 11.2077 8.29714 10.786 7.87544C10.3643 7.45374 9.79249 7.21654 9.19611 7.21589ZM9.19611 10.2151C9.04782 10.2151 8.90285 10.1711 8.77955 10.0887C8.65625 10.0063 8.56014 9.88922 8.50339 9.75222C8.44664 9.61521 8.43179 9.46445 8.46072 9.319C8.48966 9.17356 8.56107 9.03995 8.66593 8.93509C8.77079 8.83023 8.90439 8.75882 9.04984 8.72989C9.19528 8.70096 9.34604 8.71581 9.48305 8.77256C9.62006 8.82931 9.73716 8.92541 9.81955 9.04872C9.90194 9.17202 9.94591 9.31698 9.94591 9.46528C9.94578 9.6641 9.86674 9.85473 9.72616 9.99532C9.58557 10.1359 9.39493 10.2149 9.19611 10.2151ZM11.794 0.505804C11.7244 0.436162 11.6418 0.380917 11.5508 0.343225C11.4599 0.305533 11.3624 0.286133 11.2639 0.286133C11.1654 0.286133 11.0679 0.305533 10.977 0.343225C10.886 0.380917 10.8034 0.436162 10.7338 0.505804L0.236594 11.003C0.166258 11.0724 0.110354 11.1551 0.0720964 11.2463C0.033839 11.3374 0.0139845 11.4352 0.0136755 11.5341C0.0133666 11.6329 0.0326093 11.7309 0.0702962 11.8222C0.107983 11.9136 0.16337 11.9967 0.23327 12.0666C0.303169 12.1365 0.386202 12.1918 0.477588 12.2295C0.568975 12.2672 0.666912 12.2864 0.765762 12.2861C0.864613 12.2858 0.962425 12.266 1.05357 12.2277C1.14472 12.1894 1.2274 12.1335 1.29685 12.0632L11.794 1.56602C11.8637 1.49641 11.9189 1.41377 11.9566 1.32282C11.9943 1.23186 12.0137 1.13437 12.0137 1.03591C12.0137 0.937455 11.9943 0.839963 11.9566 0.749006C11.9189 0.658048 11.8637 0.575407 11.794 0.505804Z" fill="#D87558"/>
</svg>
