<svg xmlns="http://www.w3.org/2000/svg" width="20" height="20" fill="none"><g fill="#D87558" fill-rule="evenodd" clip-path="url(#a)" clip-rule="evenodd"><path d="M9.995 6.665a3.333 3.333 0 1 0 0 6.667 3.333 3.333 0 0 0 0-6.667M8.816 8.82a1.667 1.667 0 1 1 2.357 2.357A1.667 1.667 0 0 1 8.816 8.82"/><path d="M9.146.832a.83.83 0 0 0-.806.621l-.423 1.605-1.341.565-1.027-.914a.833.833 0 0 0-1.143.034L2.739 4.409a.833.833 0 0 0-.058 1.115l.9 1.108L3.03 7.99l-1.557.364a.83.83 0 0 0-.644.811v1.667c0 .376.252.705.614.804l1.61.44.567 1.344-.913 1.024a.833.833 0 0 0 .033 1.144l1.667 1.667a.833.833 0 0 0 1.115.056l1.108-.903 1.325.545.4 1.583c.093.37.426.63.807.63h1.667c.382 0 .714-.26.808-.63l.4-1.583 1.37-.567a33 33 0 0 1 .86.746l.126.113.046.04a.834.834 0 0 0 1.146-.03l1.667-1.667a.833.833 0 0 0 .046-1.128l-.908-1.07.562-1.357 1.587-.413a.83.83 0 0 0 .624-.806V9.165a.83.83 0 0 0-.628-.807l-1.577-.401-.56-1.354.9-1.066a.834.834 0 0 0-.046-1.128l-1.667-1.666a.833.833 0 0 0-1.13-.044l-1.06.904-1.4-.576-.414-1.574a.83.83 0 0 0-.806-.621zm6.383 14.12-.57.57-.006-.005a16 16 0 0 0-.928-.767.83.83 0 0 0-.803-.092l-2.21.915a.83.83 0 0 0-.488.565l-.345 1.36h-.368l-.344-1.36a.83.83 0 0 0-.491-.567l-2.172-.893a.83.83 0 0 0-.843.125l-.91.74-.577-.577.74-.83a.83.83 0 0 0 .145-.878l-.929-2.204a.83.83 0 0 0-.548-.48l-1.387-.378v-.37l1.333-.31a.83.83 0 0 0 .583-.499l.9-2.214a.83.83 0 0 0-.125-.839l-.737-.907.58-.58.832.741c.24.214.581.27.878.145l2.204-.929a.83.83 0 0 0 .482-.556l.363-1.38h.343l.356 1.354c.067.253.248.46.49.56l2.255.927c.29.118.62.065.858-.138l.86-.735.58.58-.734.869a.83.83 0 0 0-.134.857l.914 2.208c.101.243.31.424.565.489l1.354.344v.356l-1.365.355a.83.83 0 0 0-.56.488l-.915 2.21a.83.83 0 0 0 .134.857z"/></g><defs><clipPath id="a"><path fill="#fff" d="M0 0h20v20H0z"/></clipPath></defs></svg>