<svg width="11" height="11" viewBox="0 0 11 11" fill="none" xmlns="http://www.w3.org/2000/svg">
<path d="M7.30007 6.16936C7.79268 5.78179 8.15225 5.25031 8.32874 4.64886C8.50523 4.04742 8.48987 3.40591 8.2848 2.81361C8.07972 2.2213 7.69514 1.70763 7.18453 1.34408C6.67393 0.980524 6.06271 0.785156 5.43591 0.785156C4.8091 0.785156 4.19788 0.980524 3.68728 1.34408C3.17668 1.70763 2.79209 2.2213 2.58701 2.81361C2.38194 3.40591 2.36658 4.04742 2.54307 4.64886C2.71956 5.25031 3.07913 5.78179 3.57175 6.16936C2.72764 6.50754 1.99112 7.06845 1.44072 7.79229C0.89032 8.51613 0.546664 9.37577 0.44639 10.2796C0.439132 10.3455 0.444941 10.4123 0.463487 10.476C0.482032 10.5398 0.512951 10.5993 0.554477 10.651C0.638343 10.7556 0.760325 10.8226 0.893588 10.8373C1.02685 10.852 1.16048 10.8131 1.26508 10.7292C1.36967 10.6453 1.43667 10.5234 1.45133 10.3901C1.56166 9.40787 2.03001 8.50072 2.7669 7.84197C3.50379 7.18323 4.45755 6.81907 5.44596 6.81907C6.43436 6.81907 7.38812 7.18323 8.12501 7.84197C8.8619 8.50072 9.33025 9.40787 9.44058 10.3901C9.45425 10.5136 9.51316 10.6276 9.60595 10.7102C9.69874 10.7928 9.81884 10.838 9.94305 10.8373H9.99832C10.13 10.8221 10.2504 10.7555 10.3333 10.652C10.4161 10.5485 10.4546 10.4164 10.4405 10.2846C10.3397 9.37823 9.99424 8.51639 9.44101 7.79143C8.88778 7.06648 8.14769 6.50575 7.30007 6.16936ZM5.43591 5.81261C5.03839 5.81261 4.6498 5.69473 4.31928 5.47388C3.98876 5.25303 3.73115 4.93913 3.57902 4.57188C3.4269 4.20462 3.3871 3.8005 3.46465 3.41062C3.5422 3.02075 3.73362 2.66262 4.01471 2.38153C4.2958 2.10045 4.65392 1.90903 5.0438 1.83147C5.43368 1.75392 5.8378 1.79373 6.20505 1.94585C6.57231 2.09797 6.88621 2.35558 7.10706 2.6861C7.32791 3.01663 7.44578 3.40522 7.44578 3.80273C7.44578 4.33578 7.23403 4.847 6.8571 5.22393C6.48018 5.60085 5.96896 5.81261 5.43591 5.81261Z" fill="black"/>
</svg>
