<svg width="30" height="30" viewBox="0 0 30 30" fill="none" xmlns="http://www.w3.org/2000/svg">
<path d="M19.3252 7.82031C19.4221 7.72619 19.5768 7.72632 19.6738 7.82031L23.1738 11.2188C23.2729 11.3149 23.2749 11.4732 23.1787 11.5723C23.0825 11.6713 22.9242 11.6743 22.8252 11.5781L20.5977 9.41504L19.75 8.59082V22C19.75 22.138 19.638 22.2499 19.5 22.25C19.3619 22.25 19.25 22.1381 19.25 22V8.59082L18.4014 9.41504L16.1738 11.5781C16.0748 11.6741 15.9164 11.6712 15.8203 11.5723C15.7243 11.4732 15.7263 11.3149 15.8252 11.2188L19.3252 7.82031ZM10.5 7.75C10.638 7.75011 10.75 7.86201 10.75 8V21.4092L11.5977 20.585L13.8262 18.4219C13.9253 18.3261 14.0836 18.3288 14.1797 18.4277C14.2756 18.5268 14.2728 18.6852 14.1738 18.7812L10.6738 22.1797C10.5769 22.2735 10.4231 22.2735 10.3262 22.1797L6.82617 18.7812C6.72721 18.6852 6.72442 18.5268 6.82031 18.4277C6.91638 18.3288 7.07475 18.3261 7.17383 18.4219L9.40137 20.585L10.25 21.4082V8C10.25 7.86194 10.3619 7.75 10.5 7.75Z" fill="#1C1C1C" stroke="#1C1C1C"/>
</svg>
