<svg width="20" height="20" viewBox="0 0 20 20" fill="none" xmlns="http://www.w3.org/2000/svg">
<path fill-rule="evenodd" clip-rule="evenodd" d="M9.99479 2.5C8.88972 2.5 7.82991 2.93899 7.04851 3.72039C6.26711 4.50179 5.82812 5.5616 5.82812 6.66667C5.82812 7.77174 6.26711 8.83154 7.04851 9.61294C7.10348 9.66791 7.15983 9.72119 7.21747 9.77273C6.5037 10.0998 5.8466 10.5534 5.28075 11.1193C4.0305 12.3695 3.32812 14.0652 3.32812 15.8333V16.6667C3.32812 17.1269 3.70122 17.5 4.16146 17.5C4.6217 17.5 4.99479 17.1269 4.99479 16.6667V15.8333C4.99479 14.5073 5.52158 13.2355 6.45926 12.2978C7.39694 11.3601 8.66871 10.8333 9.99479 10.8333C11.3209 10.8333 12.5926 11.3601 13.5303 12.2978C14.468 13.2355 14.9948 14.5073 14.9948 15.8333V16.6667C14.9948 17.1269 15.3679 17.5 15.8281 17.5C16.2884 17.5 16.6615 17.1269 16.6615 16.6667V15.8333C16.6615 14.0652 15.9591 12.3695 14.7088 11.1193C14.143 10.5534 13.4859 10.0998 12.7721 9.77273C12.8298 9.72119 12.8861 9.66791 12.9411 9.61294C13.7225 8.83154 14.1615 7.77174 14.1615 6.66667C14.1615 5.5616 13.7225 4.50179 12.9411 3.72039C12.1597 2.93899 11.0999 2.5 9.99479 2.5ZM8.22702 4.8989C8.69586 4.43006 9.33175 4.16667 9.99479 4.16667C10.6578 4.16667 11.2937 4.43006 11.7626 4.8989C12.2314 5.36774 12.4948 6.00363 12.4948 6.66667C12.4948 7.32971 12.2314 7.96559 11.7626 8.43443C11.2937 8.90327 10.6578 9.16667 9.99479 9.16667C9.33175 9.16667 8.69586 8.90327 8.22702 8.43443C7.75818 7.96559 7.49479 7.32971 7.49479 6.66667C7.49479 6.00363 7.75818 5.36774 8.22702 4.8989Z" fill="#E8A76D"/>
</svg>
