<svg xmlns="http://www.w3.org/2000/svg" width="48" height="48" fill="none"><path fill="#0742A6" fill-rule="evenodd" d="M21.2 31.045h-3.403l2.128-12.815h3.402zM33.534 18.546A8.6 8.6 0 0 0 30.483 18c-3.36 0-5.726 1.745-5.74 4.24-.029 1.84 1.693 2.862 2.981 3.476 1.316.627 1.764 1.037 1.764 1.596-.014.858-1.064 1.254-2.043 1.254-1.359 0-2.087-.204-3.193-.682l-.448-.205-.476 2.877c.798.354 2.268.668 3.795.682 3.57 0 5.894-1.718 5.921-4.376.014-1.46-.895-2.577-2.856-3.49-1.19-.587-1.918-.982-1.918-1.582.014-.545.616-1.104 1.96-1.104a5.9 5.9 0 0 1 2.534.49l.307.137zM39.629 18.23h2.632l2.744 12.815h-3.15s-.308-1.472-.406-1.922h-4.368l-.714 1.922h-3.57l5.054-11.751c.35-.832.966-1.064 1.778-1.064m-.208 4.688s-1.078 2.85-1.358 3.586h2.828c-.14-.641-.785-3.708-.785-3.708l-.238-1.105c-.1.285-.244.676-.342.94zM14.955 18.23l-3.332 8.739-.364-1.772c-.616-2.045-2.548-4.267-4.704-5.372l3.052 11.207h3.598l5.347-12.801z" clip-rule="evenodd"/><path fill="#0742A6" fill-rule="evenodd" d="M8.53 18.23H3.056L3 18.49c4.27 1.063 7.098 3.626 8.26 6.707l-1.19-5.89c-.196-.818-.798-1.05-1.54-1.076" clip-rule="evenodd"/></svg>